# xmcd CD database file
#
# Track frame offsets:
#	150
#	25833
#	57137
#	84312
#	108343
#	126979
#	149752
#	177815
#	199973
#
# Disc length: 2956 seconds
#
# Revision: 0
# Processed by: cddbd v1.5.2PL0 Copyright (c) Steve Scherf et al.
# Submitted via: CDex 1.81
#
DISCID=7c0b8a09
DTITLE=Superdog - Superdog
DYEAR=2016
DGENRE=Jazz
TTITLE0=21 st Century Schizoid Man
TTITLE1=VROOOM VROOOM
TTITLE2=I Talk to the Wind  
TTITLE3=Dangerous Curves 
TTITLE4=Elephant Talk 
TTITLE5=Sex Sleep Eat Drink Dream
TTITLE6=The Power to Believe
TTITLE7=Indoor Games
TTITLE8=Moonchild
EXTD=YEAR: 2016
EXTT0=
EXTT1=
EXTT2=
EXTT3=
EXTT4=
EXTT5=
EXTT6=
EXTT7=
EXTT8=
PLAYORDER=
